<svg width="64" height="64" viewBox="0 0 64 64" fill="none" xmlns="http://www.w3.org/2000/svg">
<rect opacity="0.2" x="3" y="18.9032" width="59" height="26.6452" rx="2.25234" fill="black"/>
<path d="M58.8379 20.2176L47.5762 44.3498" stroke="black" stroke-width="6.43525" stroke-linecap="round"/>
<path d="M47.5762 20.2176L41.9454 32.2837L36.3145 44.3498" stroke="black" stroke-width="6.43525" stroke-linecap="round"/>
<path d="M33.9447 25.92C33.767 26.8339 33.2908 27.552 32.5162 28.0745C31.7415 28.5969 30.8973 28.7693 29.9834 28.5916C29.0696 28.4139 28.3514 27.9377 27.829 27.1631C27.3065 26.3885 27.1342 25.5442 27.3119 24.6304C27.4895 23.7165 27.9657 22.9984 28.7404 22.4759C29.515 21.9535 30.3592 21.7811 31.2731 21.9588C32.1869 22.1365 32.9051 22.6126 33.4275 23.3873C33.95 24.1619 34.1223 25.0062 33.9447 25.92ZM31.5594 38.1875C31.3817 39.1014 30.9027 39.8343 30.1223 40.3862C29.3477 40.9086 28.5034 41.081 27.5896 40.9033C26.6757 40.7256 25.9576 40.2495 25.4351 39.4748C24.9184 38.6707 24.7489 37.8117 24.9266 36.8979C25.1043 35.984 25.5804 35.2659 26.3551 34.7434C27.1297 34.221 27.974 34.0486 28.8878 34.2263C29.8017 34.404 30.5198 34.8802 31.0423 35.6548C31.5647 36.4294 31.7371 37.2737 31.5594 38.1875Z" fill="black"/>
<path d="M23.6885 20.2884C23.6885 20.859 23.4783 21.3545 23.0579 21.775C22.6675 22.1654 22.202 22.3606 21.6614 22.3606H10.0394C9.67898 22.3606 9.49879 22.5558 9.49879 22.9462V28.9374C9.49879 29.3578 9.67898 29.568 10.0394 29.568H20.0397C20.6404 29.568 21.1359 29.7633 21.5263 30.1537C21.9167 30.5441 22.1119 31.0246 22.1119 31.5952V32.8565C22.1119 33.4271 21.9167 33.9226 21.5263 34.343C21.1359 34.7334 20.6404 34.9286 20.0397 34.9286H10.0394C9.67898 34.9286 9.49879 35.1088 9.49879 35.4692V45.3795C9.49879 45.9501 9.28858 46.4456 8.86814 46.866C8.47773 47.2564 7.99723 47.4516 7.42664 47.4516H6.16533C5.62477 47.4516 5.14427 47.2564 4.72384 46.866C4.33343 46.4456 4.13823 45.9501 4.13823 45.3795V19.0722C4.13823 18.4715 4.33343 17.976 4.72384 17.5856C5.14427 17.1952 5.62477 17 6.16533 17H21.6614C22.202 17 22.6675 17.1952 23.0579 17.5856C23.4783 17.976 23.6885 18.4715 23.6885 19.0722V20.2884Z" fill="black"/>
</svg>
