<svg width="64" height="64" viewBox="0 0 64 64" fill="none" xmlns="http://www.w3.org/2000/svg">
<rect opacity="0.2" x="10" y="37" width="44" height="19" rx="1.4" fill="black"/>
<path d="M12 33C12.5304 33 13.0391 32.7893 13.4142 32.4142C13.7893 32.0391 14 31.5304 14 31V11H36V23C36 23.5304 36.2107 24.0391 36.5858 24.4142C36.9609 24.7893 37.4696 25 38 25H50V31C50 31.5304 50.2107 32.0391 50.5858 32.4142C50.9609 32.7893 51.4696 33 52 33C52.5304 33 53.0391 32.7893 53.4142 32.4142C53.7893 32.0391 54 31.5304 54 31V23C54.0002 22.7373 53.9487 22.4771 53.8483 22.2343C53.7479 21.9915 53.6007 21.7709 53.415 21.585L39.415 7.585C39.2291 7.39933 39.0085 7.2521 38.7657 7.15173C38.5229 7.05135 38.2627 6.99979 38 7H14C12.9391 7 11.9217 7.42143 11.1716 8.17157C10.4214 8.92172 10 9.93913 10 11V31C10 31.5304 10.2107 32.0391 10.5858 32.4142C10.9609 32.7893 11.4696 33 12 33ZM40 13.8275L47.1725 21H40V13.8275Z" fill="black"/>
<path d="M52 39L45 54" stroke="black" stroke-width="4" stroke-linecap="round"/>
<path d="M41 39L34 54" stroke="black" stroke-width="4" stroke-linecap="round"/>
<path d="M29.9175 42.5544C29.805 43.1221 29.5075 43.5674 29.0248 43.8904C28.5422 44.2134 28.0171 44.3187 27.4494 44.2063C26.8818 44.0938 26.4365 43.7963 26.1134 43.3136C25.7904 42.831 25.6851 42.3058 25.7976 41.7382C25.91 41.1706 26.2076 40.7252 26.6902 40.4022C27.1729 40.0792 27.698 39.9739 28.2656 40.0864C28.8333 40.1988 29.2786 40.4964 29.6016 40.979C29.9247 41.4617 30.03 41.9868 29.9175 42.5544ZM28.4079 50.1743C28.2954 50.742 27.996 51.1964 27.5098 51.5378C27.0271 51.8608 26.502 51.9661 25.9343 51.8536C25.3667 51.7412 24.9214 51.4436 24.5984 50.961C24.279 50.46 24.1755 49.9257 24.2879 49.3581C24.4004 48.7905 24.698 48.3451 25.1806 48.0221C25.6632 47.6991 26.1884 47.5938 26.756 47.7063C27.3237 47.8187 27.769 48.1163 28.092 48.5989C28.415 49.0816 28.5203 49.6067 28.4079 50.1743Z" fill="black"/>
<path d="M22.152 39.044C22.152 39.3987 22.0213 39.7067 21.76 39.968C21.5173 40.2107 21.228 40.332 20.892 40.332H13.668C13.444 40.332 13.332 40.4533 13.332 40.696V44.42C13.332 44.6813 13.444 44.812 13.668 44.812H19.884C20.2573 44.812 20.5653 44.9333 20.808 45.176C21.0507 45.4187 21.172 45.7173 21.172 46.072V46.856C21.172 47.2107 21.0507 47.5187 20.808 47.78C20.5653 48.0227 20.2573 48.144 19.884 48.144H13.668C13.444 48.144 13.332 48.256 13.332 48.48V54.64C13.332 54.9947 13.2013 55.3027 12.94 55.564C12.6973 55.8067 12.3987 55.928 12.044 55.928H11.26C10.924 55.928 10.6253 55.8067 10.364 55.564C10.1213 55.3027 10 54.9947 10 54.64V38.288C10 37.9147 10.1213 37.6067 10.364 37.364C10.6253 37.1213 10.924 37 11.26 37H20.892C21.228 37 21.5173 37.1213 21.76 37.364C22.0213 37.6067 22.152 37.9147 22.152 38.288V39.044Z" fill="black"/>
<path opacity="0.2" d="M52 23H38V9L52 23Z" fill="black"/>
</svg>
